<mxfile host="app.diagrams.net" agent="Mozilla/5.0 (Windows NT 10.0; Win64; x64) AppleWebKit/537.36 (KHTML, like Gecko) Chrome/131.0.0.0 Safari/537.36" version="24.9.3">
  <diagram name="Seite-1" id="mmXvyQhEkXXpzj3A194v">
    <mxGraphModel dx="956" dy="504" grid="1" gridSize="10" guides="1" tooltips="1" connect="1" arrows="1" fold="1" page="1" pageScale="1" pageWidth="827" pageHeight="1169" math="0" shadow="0">
      <root>
        <mxCell id="0" />
        <mxCell id="1" parent="0" />
        <mxCell id="IKFQYsi6Z-mpB0C1rU16-1" value="System" style="swimlane;whiteSpace=wrap;html=1;" vertex="1" parent="1">
          <mxGeometry x="240" width="440" height="680" as="geometry" />
        </mxCell>
        <mxCell id="IKFQYsi6Z-mpB0C1rU16-7" value="Log in&lt;div&gt;&lt;br&gt;&lt;u&gt;Extention Point&lt;/u&gt;&lt;div&gt;X: Block account after entering the wrong credentials 3 times&lt;/div&gt;&lt;/div&gt;" style="ellipse;whiteSpace=wrap;html=1;spacingTop=0;spacingBottom=-4;" vertex="1" parent="IKFQYsi6Z-mpB0C1rU16-1">
          <mxGeometry x="50" y="120" width="150" height="120" as="geometry" />
        </mxCell>
        <mxCell id="IKFQYsi6Z-mpB0C1rU16-24" value="&amp;lt;&amp;lt;includes&amp;gt;&amp;gt;" style="rounded=0;orthogonalLoop=1;jettySize=auto;html=1;entryX=0.5;entryY=1;entryDx=0;entryDy=0;dashed=1;" edge="1" parent="IKFQYsi6Z-mpB0C1rU16-1" source="IKFQYsi6Z-mpB0C1rU16-9" target="IKFQYsi6Z-mpB0C1rU16-7">
          <mxGeometry relative="1" as="geometry" />
        </mxCell>
        <mxCell id="IKFQYsi6Z-mpB0C1rU16-9" value="Make a reservation" style="ellipse;whiteSpace=wrap;html=1;" vertex="1" parent="IKFQYsi6Z-mpB0C1rU16-1">
          <mxGeometry x="65" y="300" width="120" height="80" as="geometry" />
        </mxCell>
        <mxCell id="IKFQYsi6Z-mpB0C1rU16-12" value="Register" style="ellipse;whiteSpace=wrap;html=1;" vertex="1" parent="IKFQYsi6Z-mpB0C1rU16-1">
          <mxGeometry x="65" y="450" width="120" height="80" as="geometry" />
        </mxCell>
        <mxCell id="IKFQYsi6Z-mpB0C1rU16-17" value="" style="endArrow=none;html=1;rounded=0;entryX=0.943;entryY=0.294;entryDx=0;entryDy=0;exitX=0.041;exitY=0.303;exitDx=0;exitDy=0;spacingLeft=0;spacingBottom=0;entryPerimeter=0;exitPerimeter=0;" edge="1" parent="IKFQYsi6Z-mpB0C1rU16-1" source="IKFQYsi6Z-mpB0C1rU16-7" target="IKFQYsi6Z-mpB0C1rU16-7">
          <mxGeometry width="50" height="50" relative="1" as="geometry">
            <mxPoint x="-170" y="300" as="sourcePoint" />
            <mxPoint x="-120" y="250" as="targetPoint" />
          </mxGeometry>
        </mxCell>
        <mxCell id="IKFQYsi6Z-mpB0C1rU16-20" value="&amp;lt;&amp;lt;extend&amp;gt;&amp;gt;" style="rounded=0;orthogonalLoop=1;jettySize=auto;html=1;dashed=1;verticalAlign=top;entryX=1.002;entryY=0.503;entryDx=0;entryDy=0;entryPerimeter=0;" edge="1" parent="IKFQYsi6Z-mpB0C1rU16-1" source="IKFQYsi6Z-mpB0C1rU16-18" target="IKFQYsi6Z-mpB0C1rU16-7">
          <mxGeometry relative="1" as="geometry">
            <mxPoint x="189.99999999999977" y="195" as="targetPoint" />
          </mxGeometry>
        </mxCell>
        <mxCell id="IKFQYsi6Z-mpB0C1rU16-18" value="Block account" style="ellipse;whiteSpace=wrap;html=1;" vertex="1" parent="IKFQYsi6Z-mpB0C1rU16-1">
          <mxGeometry x="310" y="140" width="120" height="80" as="geometry" />
        </mxCell>
        <mxCell id="IKFQYsi6Z-mpB0C1rU16-23" value="&lt;div&gt;&lt;font style=&quot;font-size: 9px;&quot;&gt;Condition: {3x Credentialswrong}&lt;/font&gt;&lt;/div&gt;&lt;div&gt;&lt;font style=&quot;font-size: 9px;&quot;&gt;&lt;br&gt;&lt;/font&gt;&lt;/div&gt;&lt;div&gt;&lt;font style=&quot;font-size: 9px;&quot;&gt;Extention Point: X&lt;/font&gt;&lt;/div&gt;" style="rounded=0;whiteSpace=wrap;html=1;verticalAlign=top;" vertex="1" parent="IKFQYsi6Z-mpB0C1rU16-1">
          <mxGeometry x="175" y="50" width="150" height="60" as="geometry" />
        </mxCell>
        <mxCell id="IKFQYsi6Z-mpB0C1rU16-26" value="&amp;lt;&amp;lt;extend&amp;gt;&amp;gt;" style="rounded=0;orthogonalLoop=1;jettySize=auto;html=1;dashed=1;" edge="1" parent="IKFQYsi6Z-mpB0C1rU16-1" source="IKFQYsi6Z-mpB0C1rU16-25" target="IKFQYsi6Z-mpB0C1rU16-7">
          <mxGeometry relative="1" as="geometry" />
        </mxCell>
        <mxCell id="IKFQYsi6Z-mpB0C1rU16-25" value="Generate new password/activate account" style="ellipse;whiteSpace=wrap;html=1;" vertex="1" parent="IKFQYsi6Z-mpB0C1rU16-1">
          <mxGeometry x="310" y="280" width="120" height="80" as="geometry" />
        </mxCell>
        <mxCell id="IKFQYsi6Z-mpB0C1rU16-8" style="rounded=0;orthogonalLoop=1;jettySize=auto;html=1;entryX=0;entryY=0.5;entryDx=0;entryDy=0;" edge="1" parent="1" source="IKFQYsi6Z-mpB0C1rU16-2" target="IKFQYsi6Z-mpB0C1rU16-7">
          <mxGeometry relative="1" as="geometry" />
        </mxCell>
        <mxCell id="IKFQYsi6Z-mpB0C1rU16-10" style="rounded=0;orthogonalLoop=1;jettySize=auto;html=1;" edge="1" parent="1" source="IKFQYsi6Z-mpB0C1rU16-2" target="IKFQYsi6Z-mpB0C1rU16-9">
          <mxGeometry relative="1" as="geometry" />
        </mxCell>
        <mxCell id="IKFQYsi6Z-mpB0C1rU16-2" value="Existing customer" style="shape=umlActor;verticalLabelPosition=bottom;verticalAlign=top;html=1;outlineConnect=0;" vertex="1" parent="1">
          <mxGeometry x="140" y="280" width="40" height="70" as="geometry" />
        </mxCell>
        <mxCell id="IKFQYsi6Z-mpB0C1rU16-13" style="rounded=0;orthogonalLoop=1;jettySize=auto;html=1;entryX=0;entryY=0.5;entryDx=0;entryDy=0;" edge="1" parent="1" source="IKFQYsi6Z-mpB0C1rU16-11" target="IKFQYsi6Z-mpB0C1rU16-12">
          <mxGeometry relative="1" as="geometry" />
        </mxCell>
        <mxCell id="IKFQYsi6Z-mpB0C1rU16-15" style="edgeStyle=orthogonalEdgeStyle;rounded=0;orthogonalLoop=1;jettySize=auto;html=1;" edge="1" parent="1" source="IKFQYsi6Z-mpB0C1rU16-11" target="IKFQYsi6Z-mpB0C1rU16-2">
          <mxGeometry relative="1" as="geometry" />
        </mxCell>
        <mxCell id="IKFQYsi6Z-mpB0C1rU16-11" value="New customer&lt;div&gt;&lt;br&gt;&lt;/div&gt;" style="shape=umlActor;verticalLabelPosition=bottom;verticalAlign=top;html=1;outlineConnect=0;" vertex="1" parent="1">
          <mxGeometry x="140" y="440" width="40" height="70" as="geometry" />
        </mxCell>
        <mxCell id="IKFQYsi6Z-mpB0C1rU16-22" value="" style="endArrow=none;dashed=1;html=1;dashPattern=1 3;strokeWidth=2;rounded=0;entryX=0.5;entryY=1;entryDx=0;entryDy=0;" edge="1" parent="1" target="IKFQYsi6Z-mpB0C1rU16-23">
          <mxGeometry width="50" height="50" relative="1" as="geometry">
            <mxPoint x="490" y="180" as="sourcePoint" />
            <mxPoint x="490" y="140" as="targetPoint" />
          </mxGeometry>
        </mxCell>
      </root>
    </mxGraphModel>
  </diagram>
</mxfile>
